{
	"asset": {
		"generator": "Tilt Brush 17.0.ec66acc",
		"version": "1.1",
		"copyright": "Unknown."
	},
	"buffers": {
		"sketch": {
			"byteLength": 136380,
			"type": "arraybuffer",
			"uri": "sketch.bin"
		}
	},
	"accessors": {
		"accessor_position_TaperedFlat_b468c1fb-f254-41ed-8ec9-57030bc5660c_0_0": {
			"bufferView": "vec3BufferView",
			"byteOffset": 0,
			"byteStride": 12,
			"componentType": 5126,
			"count": 788,
			"max": [ -0.5290948, 3.263901, 7.589344 ],
			"min": [ -6.150619, -2.445272, 2.409284 ],
			"type": "VEC3"
		 },
		"accessor_normal_TaperedFlat_b468c1fb-f254-41ed-8ec9-57030bc5660c_0_0": {
			"bufferView": "vec3BufferView",
			"byteOffset": 9456,
			"byteStride": 12,
			"componentType": 5126,
			"count": 788,
			"max": [ 0.9941887, 0.9953265, 0.988731 ],
			"min": [ -0.8048233, -0.9973641, -0.9990839 ],
			"type": "VEC3"
		 },
		"accessor_color_TaperedFlat_b468c1fb-f254-41ed-8ec9-57030bc5660c_0_0": {
			"bufferView": "vec4BufferView",
			"byteOffset": 0,
			"byteStride": 16,
			"componentType": 5126,
			"count": 788,
			"max": [ 0.6588235, 0.2901961, 0.1215686, 1 ],
			"min": [ 0.1137255, 0.09411765, 0.05882353, 1 ],
			"type": "VEC4"
		 },
		"accessor_tangent_TaperedFlat_b468c1fb-f254-41ed-8ec9-57030bc5660c_0_0": {
			"bufferView": "vec4BufferView",
			"byteOffset": 12608,
			"byteStride": 16,
			"componentType": 5126,
			"count": 788,
			"max": [ 0.9966812, 0.996567, 0.9918336, 1 ],
			"min": [ -0.9985465, -0.9725257, -0.9965989, 1 ],
			"type": "VEC4"
		 },
		"accessor_uv0_TaperedFlat_b468c1fb-f254-41ed-8ec9-57030bc5660c_0_0": {
			"bufferView": "vec2BufferView",
			"byteOffset": 0,
			"byteStride": 8,
			"componentType": 5126,
			"count": 788,
			"max": [ 1, 1 ],
			"min": [ 0, 0 ],
			"type": "VEC2"
		 },
		"accessor_indices_0_TaperedFlat_b468c1fb-f254-41ed-8ec9-57030bc5660c_0_0": {
			"bufferView": "ushortBufferView",
			"byteOffset": 0,
			"byteStride": 0,
			"componentType": 5123,
			"count": 2190,
			"max": [ 787 ],
			"min": [ 0 ],
			"type": "SCALAR"
		 },
		"accessor_position_Wire_4391385a-cf83-4396-9e33-31e4e4930b27_0_0": {
			"bufferView": "vec3BufferView",
			"byteOffset": 18912,
			"byteStride": 12,
			"componentType": 5126,
			"count": 984,
			"max": [ -3.301141, 3.152504, 5.592911 ],
			"min": [ -4.407676, -0.6844577, 4.821586 ],
			"type": "VEC3"
		 },
		"accessor_normal_Wire_4391385a-cf83-4396-9e33-31e4e4930b27_0_0": {
			"bufferView": "vec3BufferView",
			"byteOffset": 30720,
			"byteStride": 12,
			"componentType": 5126,
			"count": 984,
			"max": [ 0.9866555, 0.9517573, 0.9876849 ],
			"min": [ -0.9866555, -0.9635848, -0.9876849 ],
			"type": "VEC3"
		 },
		"accessor_color_Wire_4391385a-cf83-4396-9e33-31e4e4930b27_0_0": {
			"bufferView": "vec4BufferView",
			"byteOffset": 25216,
			"byteStride": 16,
			"componentType": 5126,
			"count": 984,
			"max": [ 1, 1, 1, 1 ],
			"min": [ 1, 1, 1, 1 ],
			"type": "VEC4"
		 },
		"accessor_tangent_Wire_4391385a-cf83-4396-9e33-31e4e4930b27_0_0": {
			"bufferView": "vec4BufferView",
			"byteOffset": 40960,
			"byteStride": 16,
			"componentType": 5126,
			"count": 984,
			"max": [ 0.9731613, 0.9997954, 0.9799094, 1 ],
			"min": [ -0.9731613, -0.4327134, -0.9799094, 1 ],
			"type": "VEC4"
		 },
		"accessor_uv0_Wire_4391385a-cf83-4396-9e33-31e4e4930b27_0_0": {
			"bufferView": "vec2BufferView",
			"byteOffset": 6304,
			"byteStride": 8,
			"componentType": 5126,
			"count": 984,
			"max": [ 10.1149, 1 ],
			"min": [ 0.05514239, 0 ],
			"type": "VEC2"
		 },
		"accessor_indices_0_Wire_4391385a-cf83-4396-9e33-31e4e4930b27_0_0": {
			"bufferView": "ushortBufferView",
			"byteOffset": 4380,
			"byteStride": 0,
			"componentType": 5123,
			"count": 4992,
			"max": [ 983 ],
			"min": [ 0 ],
			"type": "SCALAR"
		 },
		"accessor_position_Light_2241cd32-8ba2-48a5-9ee7-2caef7e9ed62_0_0": {
			"bufferView": "vec3BufferView",
			"byteOffset": 42528,
			"byteStride": 12,
			"componentType": 5126,
			"count": 124,
			"max": [ -3.392716, 3.271336, 5.6141 ],
			"min": [ -4.546097, 1.586401, 4.789773 ],
			"type": "VEC3"
		 },
		"accessor_normal_Light_2241cd32-8ba2-48a5-9ee7-2caef7e9ed62_0_0": {
			"bufferView": "vec3BufferView",
			"byteOffset": 44016,
			"byteStride": 12,
			"componentType": 5126,
			"count": 124,
			"max": [ 0.9691036, 0.9003951, 0.9906379 ],
			"min": [ -0.9218085, -0.7725666, -0.9885477 ],
			"type": "VEC3"
		 },
		"accessor_color_Light_2241cd32-8ba2-48a5-9ee7-2caef7e9ed62_0_0": {
			"bufferView": "vec4BufferView",
			"byteOffset": 56704,
			"byteStride": 16,
			"componentType": 5126,
			"count": 124,
			"max": [ 1, 1, 1, 1 ],
			"min": [ 1, 1, 1, 0.9215686 ],
			"type": "VEC4"
		 },
		"accessor_tangent_Light_2241cd32-8ba2-48a5-9ee7-2caef7e9ed62_0_0": {
			"bufferView": "vec4BufferView",
			"byteOffset": 58688,
			"byteStride": 16,
			"componentType": 5126,
			"count": 124,
			"max": [ 0.9733245, 0.8400187, 0.9517046, 1 ],
			"min": [ -0.9995555, -0.9953201, -0.9147662, 1 ],
			"type": "VEC4"
		 },
		"accessor_uv0_Light_2241cd32-8ba2-48a5-9ee7-2caef7e9ed62_0_0": {
			"bufferView": "vec2BufferView",
			"byteOffset": 14176,
			"byteStride": 8,
			"componentType": 5126,
			"count": 124,
			"max": [ 1, 1 ],
			"min": [ 0, 0 ],
			"type": "VEC2"
		 },
		"accessor_indices_0_Light_2241cd32-8ba2-48a5-9ee7-2caef7e9ed62_0_0": {
			"bufferView": "ushortBufferView",
			"byteOffset": 14364,
			"byteStride": 0,
			"componentType": 5123,
			"count": 336,
			"max": [ 123 ],
			"min": [ 0 ],
			"type": "SCALAR"
		 }
	},
	"bufferViews": {
		"ushortBufferView": {
			"buffer": "sketch",
			"byteLength": 15036,
			"byteOffset": 0,
			"target": 34963
		},
		"vec2BufferView": {
			"buffer": "sketch",
			"byteLength": 15168,
			"byteOffset": 15036,
			"target": 34962
		},
		"vec3BufferView": {
			"buffer": "sketch",
			"byteLength": 45504,
			"byteOffset": 30204,
			"target": 34962
		},
		"vec4BufferView": {
			"buffer": "sketch",
			"byteLength": 60672,
			"byteOffset": 75708,
			"target": 34962
		}
	},
	"meshes": {
		"mesh_TaperedFlat_b468c1fb-f254-41ed-8ec9-57030bc5660c_0_0": {
			"name": "mesh_TaperedFlat_b468c1fb-f254-41ed-8ec9-57030bc5660c_0_0",
			"primitives": [
				{
					"attributes": {
						"POSITION": "accessor_position_TaperedFlat_b468c1fb-f254-41ed-8ec9-57030bc5660c_0_0",
						"NORMAL": "accessor_normal_TaperedFlat_b468c1fb-f254-41ed-8ec9-57030bc5660c_0_0",
						"COLOR": "accessor_color_TaperedFlat_b468c1fb-f254-41ed-8ec9-57030bc5660c_0_0",
						"TANGENT": "accessor_tangent_TaperedFlat_b468c1fb-f254-41ed-8ec9-57030bc5660c_0_0",
						"TEXCOORD_0": "accessor_uv0_TaperedFlat_b468c1fb-f254-41ed-8ec9-57030bc5660c_0_0"
					},
					"indices": "accessor_indices_0_TaperedFlat_b468c1fb-f254-41ed-8ec9-57030bc5660c_0_0",
					"material": "material_b468c1fb-f254-41ed-8ec9-57030bc5660c",
					"mode": 4
				}
			]
		},
		"mesh_Wire_4391385a-cf83-4396-9e33-31e4e4930b27_0_0": {
			"name": "mesh_Wire_4391385a-cf83-4396-9e33-31e4e4930b27_0_0",
			"primitives": [
				{
					"attributes": {
						"POSITION": "accessor_position_Wire_4391385a-cf83-4396-9e33-31e4e4930b27_0_0",
						"NORMAL": "accessor_normal_Wire_4391385a-cf83-4396-9e33-31e4e4930b27_0_0",
						"COLOR": "accessor_color_Wire_4391385a-cf83-4396-9e33-31e4e4930b27_0_0",
						"TANGENT": "accessor_tangent_Wire_4391385a-cf83-4396-9e33-31e4e4930b27_0_0",
						"TEXCOORD_0": "accessor_uv0_Wire_4391385a-cf83-4396-9e33-31e4e4930b27_0_0"
					},
					"indices": "accessor_indices_0_Wire_4391385a-cf83-4396-9e33-31e4e4930b27_0_0",
					"material": "material_4391385a-cf83-4396-9e33-31e4e4930b27",
					"mode": 4
				}
			]
		},
		"mesh_Light_2241cd32-8ba2-48a5-9ee7-2caef7e9ed62_0_0": {
			"name": "mesh_Light_2241cd32-8ba2-48a5-9ee7-2caef7e9ed62_0_0",
			"primitives": [
				{
					"attributes": {
						"POSITION": "accessor_position_Light_2241cd32-8ba2-48a5-9ee7-2caef7e9ed62_0_0",
						"NORMAL": "accessor_normal_Light_2241cd32-8ba2-48a5-9ee7-2caef7e9ed62_0_0",
						"COLOR": "accessor_color_Light_2241cd32-8ba2-48a5-9ee7-2caef7e9ed62_0_0",
						"TANGENT": "accessor_tangent_Light_2241cd32-8ba2-48a5-9ee7-2caef7e9ed62_0_0",
						"TEXCOORD_0": "accessor_uv0_Light_2241cd32-8ba2-48a5-9ee7-2caef7e9ed62_0_0"
					},
					"indices": "accessor_indices_0_Light_2241cd32-8ba2-48a5-9ee7-2caef7e9ed62_0_0",
					"material": "material_2241cd32-8ba2-48a5-9ee7-2caef7e9ed62",
					"mode": 4
				}
			]
		}
	},
	"shaders": {
		"vertex_b468c1fb-f254-41ed-8ec9-57030bc5660c": {
			"type": 35633,
			"uri": "https://www.tiltbrush.com/shaders/brushes/TaperedFlat-b468c1fb-f254-41ed-8ec9-57030bc5660c/TaperedFlat-b468c1fb-f254-41ed-8ec9-57030bc5660c-v10.0-vertex.glsl"
		},
		"fragment_b468c1fb-f254-41ed-8ec9-57030bc5660c": {
			"type": 35632,
			"uri": "https://www.tiltbrush.com/shaders/brushes/TaperedFlat-b468c1fb-f254-41ed-8ec9-57030bc5660c/TaperedFlat-b468c1fb-f254-41ed-8ec9-57030bc5660c-v10.0-fragment.glsl"
		},
		"vertex_4391385a-cf83-4396-9e33-31e4e4930b27": {
			"type": 35633,
			"uri": "https://www.tiltbrush.com/shaders/brushes/Wire-4391385a-cf83-4396-9e33-31e4e4930b27/Wire-4391385a-cf83-4396-9e33-31e4e4930b27-v10.0-vertex.glsl"
		},
		"fragment_4391385a-cf83-4396-9e33-31e4e4930b27": {
			"type": 35632,
			"uri": "https://www.tiltbrush.com/shaders/brushes/Wire-4391385a-cf83-4396-9e33-31e4e4930b27/Wire-4391385a-cf83-4396-9e33-31e4e4930b27-v10.0-fragment.glsl"
		},
		"vertex_2241cd32-8ba2-48a5-9ee7-2caef7e9ed62": {
			"type": 35633,
			"uri": "https://www.tiltbrush.com/shaders/brushes/Light-2241cd32-8ba2-48a5-9ee7-2caef7e9ed62/Light-2241cd32-8ba2-48a5-9ee7-2caef7e9ed62-v10.0-vertex.glsl"
		},
		"fragment_2241cd32-8ba2-48a5-9ee7-2caef7e9ed62": {
			"type": 35632,
			"uri": "https://www.tiltbrush.com/shaders/brushes/Light-2241cd32-8ba2-48a5-9ee7-2caef7e9ed62/Light-2241cd32-8ba2-48a5-9ee7-2caef7e9ed62-v10.0-fragment.glsl"
		}
	},
	"programs": {
		"program_b468c1fb-f254-41ed-8ec9-57030bc5660c": {
			"attributes": [
				"a_position",
				"a_normal",
				"a_color",
				"a_tangent",
				"a_texcoord0"				
			],
			"vertexShader": "vertex_b468c1fb-f254-41ed-8ec9-57030bc5660c",
			"fragmentShader": "fragment_b468c1fb-f254-41ed-8ec9-57030bc5660c"
		},
		"program_4391385a-cf83-4396-9e33-31e4e4930b27": {
			"attributes": [
				"a_position",
				"a_normal",
				"a_color",
				"a_tangent",
				"a_texcoord0"				
			],
			"vertexShader": "vertex_4391385a-cf83-4396-9e33-31e4e4930b27",
			"fragmentShader": "fragment_4391385a-cf83-4396-9e33-31e4e4930b27"
		},
		"program_2241cd32-8ba2-48a5-9ee7-2caef7e9ed62": {
			"attributes": [
				"a_position",
				"a_normal",
				"a_color",
				"a_tangent",
				"a_texcoord0"				
			],
			"vertexShader": "vertex_2241cd32-8ba2-48a5-9ee7-2caef7e9ed62",
			"fragmentShader": "fragment_2241cd32-8ba2-48a5-9ee7-2caef7e9ed62"
		}
	},
	"techniques": {
		"technique_b468c1fb-f254-41ed-8ec9-57030bc5660c": {
			"program": "program_b468c1fb-f254-41ed-8ec9-57030bc5660c",
			"parameters": {
				"position": {
					"type": 35665,
					"semantic": "POSITION"
				},
				"normal": {
					"type": 35665,
					"semantic": "NORMAL"
				},
				"color": {
					"type": 35666,
					"semantic": "COLOR"
				},
				"tangent": {
					"type": 35666,
					"semantic": "TANGENT"
				},
				"texcoord0": {
					"type": 35664,
					"semantic": "TEXCOORD_0"
				},
				"modelViewMatrix": {
					"type": 35676,
					"semantic": "MODELVIEW"
				},
				"projectionMatrix": {
					"type": 35676,
					"semantic": "PROJECTION"
				},
				"normalMatrix": {
					"type": 35675,
					"semantic": "MODELVIEWINVERSETRANSPOSE"
				},
				"SceneLight_0_matrix": {
					"type": 35676,
					"semantic": "MODELVIEW",
					"node": "node_SceneLight_0_-1046"
				},
				"SceneLight_0_color": {
					"type": 35666,
					"node": "node_SceneLight_0_-1046"
				},
				"SceneLight_1_matrix": {
					"type": 35676,
					"semantic": "MODELVIEW",
					"node": "node_SceneLight_1_-1052"
				},
				"SceneLight_1_color": {
					"type": 35666,
					"node": "node_SceneLight_1_-1052"
				},
				"ambient_light_color": {
					"type": 35666
				},
				"Cutoff": {
					"type": 5126
				},
				"Color": {
					"type": 35666
				},
				"MainTex_TexelSize": {
					"type": 35666
				},
				"MainTex": {
					"type": 35678
				}				
			},
			"attributes": {
				"a_position": "position",
				"a_normal": "normal",
				"a_color": "color",
				"a_tangent": "tangent",
				"a_texcoord0": "texcoord0"				
			},
			"uniforms": {
				"u_modelViewMatrix": "modelViewMatrix",
				"u_projectionMatrix": "projectionMatrix",
				"u_normalMatrix": "normalMatrix",
				"u_SceneLight_0_matrix": "SceneLight_0_matrix",
				"u_SceneLight_0_color": "SceneLight_0_color",
				"u_SceneLight_1_matrix": "SceneLight_1_matrix",
				"u_SceneLight_1_color": "SceneLight_1_color",
				"u_ambient_light_color": "ambient_light_color",
				"u_Cutoff": "Cutoff",
				"u_Color": "Color",
				"u_MainTex_TexelSize": "MainTex_TexelSize",
				"u_MainTex": "MainTex"				
			},
			"states": {
				"enable": [
					2929
				],
				"functions": {
					"depthMask": [true]
				}
			}
		},
		"technique_4391385a-cf83-4396-9e33-31e4e4930b27": {
			"program": "program_4391385a-cf83-4396-9e33-31e4e4930b27",
			"parameters": {
				"position": {
					"type": 35665,
					"semantic": "POSITION"
				},
				"normal": {
					"type": 35665,
					"semantic": "NORMAL"
				},
				"color": {
					"type": 35666,
					"semantic": "COLOR"
				},
				"tangent": {
					"type": 35666,
					"semantic": "TANGENT"
				},
				"texcoord0": {
					"type": 35664,
					"semantic": "TEXCOORD_0"
				},
				"modelViewMatrix": {
					"type": 35676,
					"semantic": "MODELVIEW"
				},
				"projectionMatrix": {
					"type": 35676,
					"semantic": "PROJECTION"
				},
				"normalMatrix": {
					"type": 35675,
					"semantic": "MODELVIEWINVERSETRANSPOSE"
				},
				"SceneLight_0_matrix": {
					"type": 35676,
					"semantic": "MODELVIEW",
					"node": "node_SceneLight_0_-1046"
				},
				"SceneLight_0_color": {
					"type": 35666,
					"node": "node_SceneLight_0_-1046"
				},
				"SceneLight_1_matrix": {
					"type": 35676,
					"semantic": "MODELVIEW",
					"node": "node_SceneLight_1_-1052"
				},
				"SceneLight_1_color": {
					"type": 35666,
					"node": "node_SceneLight_1_-1052"
				},
				"ambient_light_color": {
					"type": 35666
				},
				"Cutoff": {
					"type": 5126
				}				
			},
			"attributes": {
				"a_position": "position",
				"a_normal": "normal",
				"a_color": "color",
				"a_tangent": "tangent",
				"a_texcoord0": "texcoord0"				
			},
			"uniforms": {
				"u_modelViewMatrix": "modelViewMatrix",
				"u_projectionMatrix": "projectionMatrix",
				"u_normalMatrix": "normalMatrix",
				"u_SceneLight_0_matrix": "SceneLight_0_matrix",
				"u_SceneLight_0_color": "SceneLight_0_color",
				"u_SceneLight_1_matrix": "SceneLight_1_matrix",
				"u_SceneLight_1_color": "SceneLight_1_color",
				"u_ambient_light_color": "ambient_light_color",
				"u_Cutoff": "Cutoff"				
			},
			"states": {
				"enable": [
					2929
				],
				"functions": {
					"depthMask": [true]
				}
			}
		},
		"technique_2241cd32-8ba2-48a5-9ee7-2caef7e9ed62": {
			"program": "program_2241cd32-8ba2-48a5-9ee7-2caef7e9ed62",
			"parameters": {
				"position": {
					"type": 35665,
					"semantic": "POSITION"
				},
				"normal": {
					"type": 35665,
					"semantic": "NORMAL"
				},
				"color": {
					"type": 35666,
					"semantic": "COLOR"
				},
				"tangent": {
					"type": 35666,
					"semantic": "TANGENT"
				},
				"texcoord0": {
					"type": 35664,
					"semantic": "TEXCOORD_0"
				},
				"modelViewMatrix": {
					"type": 35676,
					"semantic": "MODELVIEW"
				},
				"projectionMatrix": {
					"type": 35676,
					"semantic": "PROJECTION"
				},
				"normalMatrix": {
					"type": 35675,
					"semantic": "MODELVIEWINVERSETRANSPOSE"
				},
				"SceneLight_0_matrix": {
					"type": 35676,
					"semantic": "MODELVIEW",
					"node": "node_SceneLight_0_-1046"
				},
				"SceneLight_0_color": {
					"type": 35666,
					"node": "node_SceneLight_0_-1046"
				},
				"SceneLight_1_matrix": {
					"type": 35676,
					"semantic": "MODELVIEW",
					"node": "node_SceneLight_1_-1052"
				},
				"SceneLight_1_color": {
					"type": 35666,
					"node": "node_SceneLight_1_-1052"
				},
				"ambient_light_color": {
					"type": 35666
				},
				"EmissionGain": {
					"type": 5126
				},
				"MainTex_TexelSize": {
					"type": 35666
				},
				"MainTex": {
					"type": 35678
				}				
			},
			"attributes": {
				"a_position": "position",
				"a_normal": "normal",
				"a_color": "color",
				"a_tangent": "tangent",
				"a_texcoord0": "texcoord0"				
			},
			"uniforms": {
				"u_modelViewMatrix": "modelViewMatrix",
				"u_projectionMatrix": "projectionMatrix",
				"u_normalMatrix": "normalMatrix",
				"u_SceneLight_0_matrix": "SceneLight_0_matrix",
				"u_SceneLight_0_color": "SceneLight_0_color",
				"u_SceneLight_1_matrix": "SceneLight_1_matrix",
				"u_SceneLight_1_color": "SceneLight_1_color",
				"u_ambient_light_color": "ambient_light_color",
				"u_EmissionGain": "EmissionGain",
				"u_MainTex_TexelSize": "MainTex_TexelSize",
				"u_MainTex": "MainTex"				
			},
			"states": {
				"enable": [
					2929,
					3042
				],
				"functions": {
					"blendFuncSeparate": [1, 1, 1, 1],
					"depthMask": [false]
				}
			}
		}
	},
	"samplers": {
		"sampler_LINEAR_LINEAR_REPEAT": {
			"magFilter": 9729,
			"minFilter": 9987,
			"wrapS": 10497,
			"wrapT": 10497
		}
	},
	"textures": {
		"texture_b468c1fb-f254-41ed-8ec9-57030bc5660c_MainTex": {
			"format": 6408,
			"internalFormat": 6408,
			"sampler": "sampler_LINEAR_LINEAR_REPEAT",
			"source": "image_b468c1fb-f254-41ed-8ec9-57030bc5660c_MainTex",
			"target": 3553,
			"type": 5121
		},
		"texture_2241cd32-8ba2-48a5-9ee7-2caef7e9ed62_MainTex": {
			"format": 6408,
			"internalFormat": 6408,
			"sampler": "sampler_LINEAR_LINEAR_REPEAT",
			"source": "image_2241cd32-8ba2-48a5-9ee7-2caef7e9ed62_MainTex",
			"target": 3553,
			"type": 5121
		}
	},
	"images": {
		"image_b468c1fb-f254-41ed-8ec9-57030bc5660c_MainTex": {
			"uri": "https://www.tiltbrush.com/shaders/brushes/TaperedFlat-b468c1fb-f254-41ed-8ec9-57030bc5660c/TaperedFlat-b468c1fb-f254-41ed-8ec9-57030bc5660c-v10.0-MainTex.png"
		},
		"image_2241cd32-8ba2-48a5-9ee7-2caef7e9ed62_MainTex": {
			"uri": "https://www.tiltbrush.com/shaders/brushes/Light-2241cd32-8ba2-48a5-9ee7-2caef7e9ed62/Light-2241cd32-8ba2-48a5-9ee7-2caef7e9ed62-v10.0-MainTex.png"
		}
	},
	"materials": {
		"material_b468c1fb-f254-41ed-8ec9-57030bc5660c": {
			"technique": "technique_b468c1fb-f254-41ed-8ec9-57030bc5660c",
			"values": {
				"SceneLight_0_color": [0.7780392, 0.8156863, 0.9913726, 1],
				"SceneLight_1_color": [0.4282353, 0.4211765, 0.3458824, 1],
				"ambient_light_color": [0.3921569, 0.3921569, 0.3921569, 1],
				"Cutoff": 0.067,
				"Color": [1, 1, 1, 1],
				"MainTex_TexelSize": [0.001953125, 0.00390625, 512, 256],
				"MainTex": "texture_b468c1fb-f254-41ed-8ec9-57030bc5660c_MainTex"				
			},
			"name": "material_b468c1fb-f254-41ed-8ec9-57030bc5660c"
		},
		"material_4391385a-cf83-4396-9e33-31e4e4930b27": {
			"technique": "technique_4391385a-cf83-4396-9e33-31e4e4930b27",
			"values": {
				"SceneLight_0_color": [0.7780392, 0.8156863, 0.9913726, 1],
				"SceneLight_1_color": [0.4282353, 0.4211765, 0.3458824, 1],
				"ambient_light_color": [0.3921569, 0.3921569, 0.3921569, 1],
				"Cutoff": 0.067				
			},
			"name": "material_4391385a-cf83-4396-9e33-31e4e4930b27"
		},
		"material_2241cd32-8ba2-48a5-9ee7-2caef7e9ed62": {
			"technique": "technique_2241cd32-8ba2-48a5-9ee7-2caef7e9ed62",
			"values": {
				"SceneLight_0_color": [0.7780392, 0.8156863, 0.9913726, 1],
				"SceneLight_1_color": [0.4282353, 0.4211765, 0.3458824, 1],
				"ambient_light_color": [0.3921569, 0.3921569, 0.3921569, 1],
				"EmissionGain": 0.45,
				"MainTex_TexelSize": [0.001953125, 0.00390625, 512, 256],
				"MainTex": "texture_2241cd32-8ba2-48a5-9ee7-2caef7e9ed62_MainTex"				
			},
			"name": "material_2241cd32-8ba2-48a5-9ee7-2caef7e9ed62"
		}
	},
	"nodes": {
		"node_TaperedFlat_b468c1fb-f254-41ed-8ec9-57030bc5660c_0_0": {
			"name": "node_TaperedFlat_b468c1fb-f254-41ed-8ec9-57030bc5660c_0_0",
			"meshes": [
				"mesh_TaperedFlat_b468c1fb-f254-41ed-8ec9-57030bc5660c_0_0"
			],
			"matrix": [1, 0, 0, 0, 0, 1, 0, 0, 0, 0, 1, 0, 0, 0, 0, 1]
		},
		"node_SceneLight_0_-1046": {
			"name": "node_SceneLight_0_-1046",
			"light": "SceneLight_0",
			"matrix": [0.898794, 0.2191856, -0.3796406, 0, -0.4383712, 0.449397, -0.7783785, 0, -1.490116E-08, 0.8660254, 0.4999999, 0, 0.2650185, -0.2874612, -0.08742937, 1]
		},
		"node_SceneLight_1_-1052": {
			"name": "node_SceneLight_1_-1052",
			"light": "SceneLight_1",
			"matrix": [0.7660444, -0.4924039, -0.4131759, 0, -0.6427876, -0.5868242, -0.4924039, 0, 8.940697E-08, 0.6427876, -0.7660446, 0, 0.2650185, -0.2987332, -0.1513563, 1]
		},
		"node_Wire_4391385a-cf83-4396-9e33-31e4e4930b27_0_0": {
			"name": "node_Wire_4391385a-cf83-4396-9e33-31e4e4930b27_0_0",
			"meshes": [
				"mesh_Wire_4391385a-cf83-4396-9e33-31e4e4930b27_0_0"
			],
			"matrix": [1, 0, 0, 0, 0, 1, 0, 0, 0, 0, 1, 0, 0, 0, 0, 1]
		},
		"node_Light_2241cd32-8ba2-48a5-9ee7-2caef7e9ed62_0_0": {
			"name": "node_Light_2241cd32-8ba2-48a5-9ee7-2caef7e9ed62_0_0",
			"meshes": [
				"mesh_Light_2241cd32-8ba2-48a5-9ee7-2caef7e9ed62_0_0"
			],
			"matrix": [1, 0, 0, 0, 0, 1, 0, 0, 0, 0, 1, 0, 0, 0, 0, 1]
		}
	},
	"scene": "defaultScene",
	"scenes": {
		"defaultScene": {
			"nodes": [
				"node_TaperedFlat_b468c1fb-f254-41ed-8ec9-57030bc5660c_0_0",
				"node_SceneLight_0_-1046",
				"node_SceneLight_1_-1052",
				"node_Wire_4391385a-cf83-4396-9e33-31e4e4930b27_0_0",
				"node_Light_2241cd32-8ba2-48a5-9ee7-2caef7e9ed62_0_0"
			],
			"extras": {
				"TB_EnvironmentGuid": "580b4529-ac50-4fe9-b8d2-635765a14893",
				"TB_Environment": "Black",
				"TB_UseGradient": "true",
				"TB_SkyColorA": "0, 0, 0",
				"TB_SkyColorB": "1, 1, 1",
				"TB_SkyGradientDirection": "-0.6247045, 0.7541557, 0.2024687",
				"TB_FogColor": "0.01960784, 0.01960784, 0.01960784",
				"TB_FogDensity": "0",
				"TB_SkyColorHorizon": "0, 0, 0",
				"TB_SkyColorZenith": "1, 1, 1"
			}
		}
	}
}